<?xml version="1.0" standalone="no"?>
<!DOCTYPE svg PUBLIC "-//W3C//DTD SVG 20010904//EN"
 "http://www.w3.org/TR/2001/REC-SVG-20010904/DTD/svg10.dtd">
<svg version="1.0" xmlns="http://www.w3.org/2000/svg"
 width="76.000000pt" height="76.000000pt" viewBox="0 0 76.000000 76.000000"
 preserveAspectRatio="xMidYMid meet">
<metadata>
Created by potrace 1.14, written by Peter Selinger 2001-2017
</metadata>
<g transform="translate(0.000000,76.000000) scale(0.100000,-0.100000)"
fill="#000000" stroke="none">
<path d="M343 746 c-125 -41 -213 -164 -213 -297 0 -26 -3 -49 -7 -52 -5 -2
-3 -2 4 -1 6 2 15 -12 19 -29 8 -41 56 -111 94 -139 16 -12 26 -26 23 -31 -3
-6 -1 -7 5 -3 6 4 21 2 34 -5 37 -20 121 -35 160 -29 22 4 35 3 31 -3 -3 -5 6
-1 21 8 14 10 26 14 26 11 0 -4 10 0 22 8 27 19 42 21 32 4 -4 -8 -3 -10 2 -5
5 5 9 12 9 15 0 4 20 27 44 51 62 62 86 119 86 211 0 59 -5 85 -24 124 -31 62
-84 116 -143 145 -59 28 -167 36 -225 17z"/>
<path d="M106 362 c-2 -4 4 -8 14 -8 10 0 16 4 14 8 -3 4 -9 8 -14 8 -5 0 -11
-4 -14 -8z"/>
<path d="M450 140 c0 -5 5 -10 11 -10 5 0 7 5 4 10 -3 6 -8 10 -11 10 -2 0 -4
-4 -4 -10z"/>
<path d="M270 79 c0 -5 5 -7 10 -4 6 3 10 8 10 11 0 2 -4 4 -10 4 -5 0 -10 -5
-10 -11z"/>
<path d="M455 80 c-3 -5 -1 -10 4 -10 6 0 11 5 11 10 0 6 -2 10 -4 10 -3 0 -8
-4 -11 -10z"/>
</g>
</svg>
