<svg width="834" height="552" viewBox="0 0 834 552" fill="none" xmlns="http://www.w3.org/2000/svg">
<path d="M868.157 62.9162C868.157 193.623 891.904 287.607 687.308 323.16C482.711 358.713 444.983 428.949 347.532 510.471C157.549 669.398 -205.953 338.138 -184.053 62.9162C-184.053 -205.448 51.4917 -423 342.051 -423C632.611 -423 868.157 -205.448 868.157 62.9162Z" fill="#61C9A8"/>
<path d="M417.476 -0.9178C535.049 -36.6857 427.347 -81.0081 427.347 -81.0081L-51.9999 -91.2083L-11.0986 63.1115L-7.30096 218.339C-7.30096 218.339 21.9745 220.119 110.581 190.891C199.188 161.663 238.454 168.186 295.083 138.958C357.193 85.1983 363.531 15.4931 417.476 -0.9178Z" fill="#9AFFDF"/>
<circle cx="576" cy="58" r="27" fill="#9AFFDF"/>
<circle cx="142" cy="448" r="27" fill="#9AFFDF"/>
<path d="M181 125.842C181 137.949 171.186 147.763 159.079 147.763C146.972 147.763 137.158 137.949 137.158 125.842C137.158 113.735 146.972 103.921 159.079 103.921C171.186 103.921 181 113.735 181 125.842Z" fill="#61C9A8"/>
<path d="M90 58C90 70.1503 80.1502 80 68 80C55.8497 80 46 70.1503 46 58C46 45.8498 55.8497 36 68 36C80.1502 36 90 45.8498 90 58Z" fill="#61C9A8"/>
<path d="M529.062 183.464C529.062 227.35 491.44 262.928 445.031 262.928C398.622 262.928 361 227.35 361 183.464C361 139.577 398.622 104 445.031 104C491.44 104 529.062 139.577 529.062 183.464Z" fill="#9AFFDF" fill-opacity="0.6"/>
</svg>
