<svg width="390" height="244" viewBox="0 0 390 244" fill="none" xmlns="http://www.w3.org/2000/svg">
<ellipse cx="189.5" cy="37" rx="253.5" ry="207" fill="#CDB0EE"/>
<g filter="url(#filter0_d_160_191)">
<path d="M88 140C88 156.569 74.3447 170 57.5 170C40.6553 170 27 156.569 27 140C27 123.431 40.6553 110 57.5 110C74.3447 110 88 123.431 88 140Z" fill="#FFB3BA"/>
</g>
<g filter="url(#filter1_d_160_191)">
<path d="M363 60.5C363 78.4493 347.778 93 329 93C310.222 93 295 78.4493 295 60.5C295 42.5507 310.222 28 329 28C347.778 28 363 42.5507 363 60.5Z" fill="#61C9A8"/>
</g>
<defs>
<filter id="filter0_d_160_191" x="17" y="110" width="71" height="76" filterUnits="userSpaceOnUse" color-interpolation-filters="sRGB">
<feFlood flood-opacity="0" result="BackgroundImageFix"/>
<feColorMatrix in="SourceAlpha" type="matrix" values="0 0 0 0 0 0 0 0 0 0 0 0 0 0 0 0 0 0 127 0" result="hardAlpha"/>
<feOffset dx="-6" dy="12"/>
<feGaussianBlur stdDeviation="2"/>
<feComposite in2="hardAlpha" operator="out"/>
<feColorMatrix type="matrix" values="0 0 0 0 0 0 0 0 0 0 0 0 0 0 0 0 0 0 0.25 0"/>
<feBlend mode="normal" in2="BackgroundImageFix" result="effect1_dropShadow_160_191"/>
<feBlend mode="normal" in="SourceGraphic" in2="effect1_dropShadow_160_191" result="shape"/>
</filter>
<filter id="filter1_d_160_191" x="285" y="28" width="78" height="81" filterUnits="userSpaceOnUse" color-interpolation-filters="sRGB">
<feFlood flood-opacity="0" result="BackgroundImageFix"/>
<feColorMatrix in="SourceAlpha" type="matrix" values="0 0 0 0 0 0 0 0 0 0 0 0 0 0 0 0 0 0 127 0" result="hardAlpha"/>
<feOffset dx="-6" dy="12"/>
<feGaussianBlur stdDeviation="2"/>
<feComposite in2="hardAlpha" operator="out"/>
<feColorMatrix type="matrix" values="0 0 0 0 0 0 0 0 0 0 0 0 0 0 0 0 0 0 0.25 0"/>
<feBlend mode="normal" in2="BackgroundImageFix" result="effect1_dropShadow_160_191"/>
<feBlend mode="normal" in="SourceGraphic" in2="effect1_dropShadow_160_191" result="shape"/>
</filter>
</defs>
</svg>
